<svg width="261" height="260" fill="none" xmlns="http://www.w3.org/2000/svg"><path d="M33.375 116.982a8.238 8.238 0 016.884-8.126l46.645-7.774c5.022-.837 9.593 3.035 9.593 8.126v98.929a8.238 8.238 0 01-8.239 8.238H41.613a8.238 8.238 0 01-8.238-8.238v-91.155zm135.594 38.721a8.239 8.239 0 017.365-8.192l46.645-4.975c4.868-.519 9.112 3.296 9.112 8.191v57.41a8.238 8.238 0 01-8.238 8.238h-46.645a8.24 8.24 0 01-8.239-8.238v-52.434z" fill="#FFEEE8"/><path d="M101.168 60.874a8.239 8.239 0 016.884-8.126l46.645-7.774c5.022-.837 9.593 3.035 9.593 8.126v155.037a8.238 8.238 0 01-8.238 8.238h-46.646a8.238 8.238 0 01-8.238-8.238V60.874z" fill="#F7B296"/></svg>