<svg width="260" height="260" fill="none" xmlns="http://www.w3.org/2000/svg"><path d="M133.774 147.022a7.627 7.627 0 016.606-7.558l44.063-5.948c4.576-.618 8.647 2.94 8.647 7.557v72.623a7.627 7.627 0 01-7.627 7.626H141.4a7.626 7.626 0 01-7.626-7.626v-66.674zM56.664 65.23a7.626 7.626 0 015.638-7.362l44.063-11.897c4.847-1.308 9.614 2.342 9.614 7.363v160.362a7.626 7.626 0 01-7.626 7.626H64.29a7.626 7.626 0 01-7.626-7.626V65.231z" fill="#EF9C89"/><path d="M158.461 165.156a7.626 7.626 0 016.818-7.583l43.181-4.606c4.506-.481 8.435 3.051 8.435 7.583v53.146a7.626 7.626 0 01-7.626 7.626h-43.182a7.627 7.627 0 01-7.626-7.626v-48.54z" fill="#F7B296"/><path d="M95.7 77.37a7.626 7.626 0 016.372-7.523l43.181-7.197c4.649-.775 8.88 2.81 8.88 7.523v143.523a7.626 7.626 0 01-7.626 7.626h-43.181a7.626 7.626 0 01-7.627-7.626V77.369z" fill="#FED6C6"/><path d="M32.938 129.31a7.626 7.626 0 016.372-7.522l43.181-7.197c4.649-.775 8.88 2.81 8.88 7.522v91.582a7.627 7.627 0 01-7.626 7.627H40.564a7.627 7.627 0 01-7.627-7.627V129.31z" fill="#F7BAA2"/></svg>