<svg width="38" height="35" fill="none" xmlns="http://www.w3.org/2000/svg"><path d="M35.004 15.254a22.87 22.87 0 00-2.596-.549h-4.034l-1.318-2.039h1.558c.36 0 .639-.274.639-.627v-1.883a.625.625 0 00-.64-.627h-1.917c-.08 0-.16 0-.24.04a3.77 3.77 0 00-1.038.548l-2.037-3.215h1.398c.36 0 .64-.275.64-.628V4.47a.625.625 0 00-.64-.627h-1.837c-.08 0-.16 0-.24.04-.32.117-.679.274-.959.509l-1.757-2.745a.495.495 0 00-.32-.235L16.192.039a.708.708 0 00-.68.118c-.2.157-.24.392-.2.627l4.155 13.882H7.764c-.04 0-.76.157-1.598.392L3.65 10.235c-.12-.196-.32-.353-.56-.353H.655c-.2 0-.4.078-.52.235a.67.67 0 00-.119.55l1.518 6.156h-.84c-.36 0-.64.274-.64.627s.28.628.64.628h.839L.055 24.156a.67.67 0 00.12.549.65.65 0 00.519.235H3.13c.24 0 .48-.117.56-.353l2.476-4.745c.919.197 1.638.314 1.678.314h11.663L15.353 34c-.08.235 0 .47.2.627.12.118.28.157.439.157.08 0 .16 0 .24-.04l3.474-1.372a.62.62 0 00.32-.235l1.758-2.745c.28.196.639.392.958.51.08.04.16.04.24.04h1.837c.36 0 .64-.275.64-.628V28.51a.625.625 0 00-.64-.628h-1.398l2.037-3.215c.32.235.68.392 1.039.549.08.039.16.039.24.039h1.917a.625.625 0 00.639-.627v-1.883a.625.625 0 00-.64-.627h-1.557l1.278-2h4.034c.04 0 1.318-.196 2.596-.55C37.041 18.98 38 18.314 38 17.412c0-1.176-1.678-1.804-2.996-2.157zm-.479 3.255c-1.038.275-2.037.431-2.237.47H8.003a64.08 64.08 0 01-1.238-.235l.32-.627h.719c.36 0 .639-.274.639-.627a.625.625 0 00-.64-.628h-.718l-.32-.627c.56-.157 1.039-.275 1.198-.275h24.285c.24.04 1.318.196 2.397.51 1.677.47 2.037.902 2.037 1.02 0 .039-.24.51-2.157 1.02zM24.18 29.254v.549h-1.038c-.16-.079-.36-.157-.48-.235.12-.079.32-.197.52-.275h.998v-.04zm-4.913 2.784l6.99-11.803h.6l-7.59 11.803zm5.951-11.803L17.71 32.9l-.719.274 3.915-12.94h4.313zm-20.29-.667L2.77 23.725H1.573L2.89 18.43l.08-.314h2.757l-.16.314-.28.549-.36.588zM2.77 11.215l2.237 4.314.28.549.279.549.12.235H2.93l-.04-.157-1.357-5.49H2.77zM19.067 2.55l7.83 12.156h-.64L19.067 2.55zm5.113 2.588v.55h-1.038c-.2-.08-.36-.197-.52-.275.12-.079.32-.157.48-.236h1.078v-.039zM17.67 2l7.548 12.705h-4.273L17.03 1.725l.64.275zm10.304 8.784v.627h-1.118c-.2-.117-.4-.235-.56-.313.16-.079.36-.196.56-.275h1.118v-.04zm-1.118 12.705h1.118v.628h-1.118c-.2-.079-.4-.196-.56-.275.16-.117.36-.235.56-.353z" fill="#fff"/></svg>