<svg width="38" height="33" fill="none" xmlns="http://www.w3.org/2000/svg"><path d="M25.937 24.336l-2.692 2.83-.829-1.133c-.259-.36-.776-.463-1.139-.154-.362.257-.466.772-.155 1.132l1.398 1.904a.74.74 0 00.621.308h.052a.958.958 0 00.621-.257l3.417-3.55c.31-.309.31-.875 0-1.183-.414-.206-.984-.206-1.294.103zM15.79 14.663l-2.692 2.83-.829-1.132c-.259-.36-.776-.463-1.139-.154-.362.257-.466.771-.155 1.131l1.398 1.904a.74.74 0 00.621.309h.052a.958.958 0 00.621-.257l3.417-3.55c.31-.31.31-.875 0-1.184-.466-.257-.984-.257-1.294.103z" fill="#fff"/><path d="M35.151 4.528h-2.64v-2.47C32.511.926 31.424 0 30.078 0c-1.346 0-2.433.926-2.433 2.058v2.47h-6.16v-2.47C21.484.926 20.396 0 19.05 0s-2.433.926-2.433 2.058v2.47h-6.212v-2.47C10.406.926 9.318 0 7.972 0S5.54.926 5.54 2.058v2.47H2.9A2.885 2.885 0 000 7.408v22.433a2.885 2.885 0 002.9 2.88h32.2a2.884 2.884 0 002.898-2.88V7.409c.052-1.544-1.242-2.881-2.847-2.881zM1.657 13.223h7.3v8.026h-7.3v-8.026zm8.49 0h8.283v8.026h-8.283v-8.026zm9.473 0h8.284v8.026H19.62v-8.026zm9.474 0h7.3v8.026h-7.3v-8.026zm.207-8.695v-2.47c0-.154.31-.412.777-.412.466 0 .776.258.776.412v5.866c0 .154-.31.41-.776.41s-.777-.256-.777-.41V4.527zm-11.026 0v-2.47c0-.154.31-.412.776-.412s.777.258.777.412v5.866c0 .154-.311.41-.777.41s-.776-.256-.776-.41V4.527zm-11.08 0v-2.47c0-.154.312-.412.777-.412.466 0 .777.258.777.412v5.866c0 .154-.31.41-.777.41-.465 0-.776-.256-.776-.41V4.527zM1.658 7.46c0-.669.57-1.235 1.242-1.235h2.64v1.75c0 1.132 1.087 2.058 2.433 2.058 1.346 0 2.434-.926 2.434-2.058V6.174h6.212v1.75c0 1.131 1.087 2.057 2.433 2.057 1.346 0 2.433-.926 2.433-2.058v-1.75h6.16v1.75c0 1.132 1.088 2.058 2.434 2.058s2.433-.926 2.433-2.058v-1.75h2.64c.673 0 1.243.567 1.243 1.236v4.116H1.657V7.46zm0 22.432v-7.46h7.3v8.695h-6.06a1.256 1.256 0 01-1.242-1.235zm8.49-7.46h8.283v8.695h-8.283v-8.695zm9.473 0h8.284v8.695H19.62v-8.695zm16.774 7.46c0 .67-.57 1.235-1.243 1.235h-6.005v-8.695h7.3v7.46h-.052z" fill="#fff"/></svg>