<svg width="30" height="29" fill="none" xmlns="http://www.w3.org/2000/svg"><path d="M23.924 15.6c-.265 0-.541-.084-.806-.144a11.353 11.353 0 01-1.576-.47 2.406 2.406 0 00-2.984 1.204l-.265.541a14.653 14.653 0 01-3.2-2.406 14.653 14.653 0 01-2.406-3.2l.505-.338a2.407 2.407 0 001.203-2.983 12.428 12.428 0 01-.47-1.577 8.948 8.948 0 01-.144-.818 3.61 3.61 0 00-3.61-2.996H6.563a3.61 3.61 0 00-3.61 4.103A22.86 22.86 0 0022.83 26.32h.457a3.61 3.61 0 002.407-.914 3.61 3.61 0 001.203-2.707v-3.61a3.61 3.61 0 00-2.972-3.489zm.602 7.22a1.203 1.203 0 01-.871 1.156 1.26 1.26 0 01-.525.046A20.454 20.454 0 015.431 6.24a1.311 1.311 0 01.301-.986 1.203 1.203 0 01.903-.41h3.609a1.203 1.203 0 011.203.951 13.625 13.625 0 00.734 2.84l-1.684.782a1.203 1.203 0 00-.59 1.6 17.434 17.434 0 008.422 8.422c.293.12.622.12.915 0a1.203 1.203 0 00.686-.625l.745-1.685a16.33 16.33 0 001.901.553c.321.073.646.133.975.181a1.203 1.203 0 01.95 1.203l.025 3.754z" fill="#fff"/></svg>