<svg width="38" height="39" fill="none" xmlns="http://www.w3.org/2000/svg"><path d="M.573 1.54l6.434 1.885 3.72 8.844a1 1 0 00-.201.29l-1.81 5.316a.952.952 0 000 .531l5.027 11.889a5.635 5.635 0 00-.302 1.836c0 3.383 2.865 6.137 6.384 6.137s6.384-2.754 6.384-6.137c0-.532-.05-1.063-.201-1.547l11.511-4.736a.733.733 0 00.402-1.014c-.15-.387-.653-.58-1.056-.387l-11.46 4.688c-.252-.387-.503-.774-.855-1.112l10.808-4.3a.445.445 0 00.301-.29.646.646 0 000-.436l-5.58-12.951c-.1-.29-.452-.435-.753-.29l-1.157.435-3.92-9.182a.445.445 0 00-.302-.29.724.724 0 00-.453 0L13.24 4.875a.445.445 0 00-.302.29.647.647 0 000 .435l3.921 9.182-1.307.531a.51.51 0 00-.301.725l4.323 10.052c-.453 0-.905.097-1.307.193L8.364 2.507c-.1-.194-.301-.387-.503-.435L1.075.042C.673-.103.221.14.07.574c-.201.386.05.821.503.966zm13.622 4.156l2.815-1.111 1.106 2.561 3.519-1.401-1.106-2.562 2.815-1.111 3.72 8.65-9.2 3.673-3.669-8.699zm5.63 21.94h.402c.503.049.955.146 1.357.339.05 0 .1.048.151.048.453.193.855.435 1.207.725.351.29.703.677.955 1.063.301.435.502.918.603 1.45.05.29.1.628.1.966 0 2.514-2.11 4.592-4.775 4.592-2.614 0-4.775-2.03-4.775-4.592 0-1.643.904-3.092 2.262-3.914.452-.29.955-.483 1.508-.58.352-.096.703-.096 1.005-.096zm-3.318-11.55l4.022-1.594 1.558 3.576 4.725-1.885-1.558-3.576 4.021-1.595 5.077 11.985-10.757 4.301a6.274 6.274 0 00-2.765-1.111l-4.323-10.1zm-1.759 12.469l-1.86-4.35 2.212-1.304 1.659 3.962a5.165 5.165 0 00-2.011 1.692zm-2.463-5.8l-1.96-4.59 1.256-3.722 2.916 7.008-2.212 1.305z" fill="#fff"/><path d="M19.825 34.837c1.508 0 2.714-1.16 2.714-2.61v-.144c-.05-.532-.25-1.064-.553-1.45-.502-.628-1.306-1.015-2.161-1.015h-.201c-.553.048-1.106.242-1.508.58a2.532 2.532 0 00-1.056 2.078c.05 1.353 1.257 2.561 2.765 2.561z" fill="#fff"/></svg>