<svg width="38" height="37" fill="none" xmlns="http://www.w3.org/2000/svg"><path d="M.999 36.628h27.903l.056-.054 8.876-8.456.055-.054.055-.054s0-.054.056-.054V.862C38 .377 37.612 0 37.112 0H9.098l-.056.054L.166 8.51l-.055.054-.056.053s0 .054-.055.054V35.66c.11.538.5.97.999.97zm26.239-1.724H1.886V10.18h8.432v13.305l2.33-1.562 1.83 1.562 1.776-1.67 2.718 1.67V10.181h8.321v24.723h-.055zm1.775-25.262l7.1-6.949v24.24l-7.1 6.733V9.642zm-1.22-1.185h-7.767l6.768-6.733h7.822l-6.823 6.733zM10.207 1.724h7.878l-7.046 6.733H3.162l7.045-6.733z" fill="#fff"/></svg>